<svg id="圖層_1" data-name="圖層 1" xmlns="http://www.w3.org/2000/svg" viewBox="0 0 254.93 254.93"><defs><style>.cls-1{fill:#a08045;}</style></defs><path class="cls-1" d="M127.33,230.14a100,100,0,1,1,100.13-99.82A100,100,0,0,1,127.33,230.14Zm58.86-48.91v-1.74c0-13.34,0-26.68,0-40a70.78,70.78,0,0,0-.52-8c-1.7-14.27-10.21-23.29-23.93-24.93-10-1.21-18.51,1.8-24.48,10.42a6.36,6.36,0,0,0-.48,1l-.54-.36c0-2.58-.08-5.17,0-7.75.06-1.45-.4-1.89-1.87-1.88-7,.07-13.92,0-20.89,0a13.35,13.35,0,0,0-1.46.15v73h24.2c0-6.9,0-13.66,0-20.43,0-7.61,0-15.22.18-22.83.12-4.48,2.5-7.91,6.14-10.33,7.06-4.71,16-1.54,18.24,6.6a32.54,32.54,0,0,1,1,8.47c.11,12.16.05,24.33.05,36.5v2.08Zm-112-73.1v73.05H98.26a3.92,3.92,0,0,0,.15-.68q0-35.53,0-71.07c0-1.54-.89-1.42-1.9-1.42H75.86C75.35,108,74.83,108.08,74.18,108.13ZM72.66,85.29C72.61,92.67,78.15,98,86,98.05c8.07.09,14-5.24,14-12.57S94.4,72.79,86.6,72.73C78.43,72.66,72.71,77.82,72.66,85.29Z"/></svg>