<svg id="圖層_1" data-name="圖層 1" xmlns="http://www.w3.org/2000/svg" viewBox="0 0 254.93 254.93"><defs><style>.cls-1{fill:#a08045;}</style></defs><path class="cls-1" d="M150.89,234.73v-2.5c0-12.23-.14-24.47.06-36.7.11-6.93-1.42-13.13-6-18.46a12,12,0,0,1-1-1.51c5.2-1.54,10.43-2.68,15.34-4.63,15.64-6.19,24.8-17.81,27.44-34.38,1.58-9.89-.72-19.12-5.7-27.72-1.33-2.3-3.51-4.39-4-6.84s.74-5.16,1.05-7.78a38.28,38.28,0,0,0-2.53-18.16c-8.6-.11-15.49,4.08-22.32,8.22a9.21,9.21,0,0,1-7.68,1.11,74.77,74.77,0,0,0-37.84.36,5.26,5.26,0,0,1-4.59-.73c-2.07-1.34-4.25-2.52-6.39-3.76C91.4,78.19,85.82,76,79.41,76c-2.79,7.25-3.81,14.81-1.76,22.55a6,6,0,0,1-1.12,5.86c-4.85,6.36-7.26,13.71-8.13,21.63a43.11,43.11,0,0,0,2.73,21.24C75.8,158.83,84.26,166.56,95.71,171c4.88,1.88,10.05,3,15.25,4.58-.17.27-.46.8-.83,1.29-2.59,3.45-4.93,7-5.54,11.45a2.05,2.05,0,0,1-1.2,1.25c-6.37,2.42-11.87.76-15.66-4.93-3.21-4.82-6.66-9.32-12-12a17.89,17.89,0,0,0-10.28-2.14l1,11.44c4.67.35,7.46,3.36,9.84,6.88s4.7,6.88,8.21,9.3a23.28,23.28,0,0,0,17,4c.71-.1,1.42-.17,2.27-.28v33c-2.69-.8-5.37-1.47-8-2.4-22.86-8.23-40.38-23-53.06-43.6a102.92,102.92,0,0,1-14-37.57A100.32,100.32,0,0,1,107.25,36.85C147,28.49,189,46,211.08,80.15c12.56,19.43,18,40.64,16,63.66a103.26,103.26,0,0,1-17.77,49.36A102.37,102.37,0,0,1,175,225.1,90.69,90.69,0,0,1,150.89,234.73Z"/></svg>