<svg id="圖層_1" data-name="圖層 1" xmlns="http://www.w3.org/2000/svg" viewBox="0 0 254.93 254.93"><defs><style>.cls-1{fill:#a08045;}</style></defs><path class="cls-1" d="M121.21,27.46h12.5c3.41.45,6.83.78,10.22,1.36a100.33,100.33,0,0,1,82,81.42c.65,3.63,1,7.31,1.53,11v12.5c-.3,2.45-.56,4.89-.91,7.33a100.36,100.36,0,0,1-81.67,84.87c-3.7.67-7.44,1-11.17,1.55h-12.5c-2.43-.3-4.88-.56-7.31-.91A100.4,100.4,0,0,1,29,144.89c-.67-3.7-1-7.45-1.56-11.18v-12.5c.44-3.34.77-6.7,1.33-10A100.31,100.31,0,0,1,110.24,29C113.88,28.36,117.56,28,121.21,27.46Zm6.27,145.45q25.38,0,50.76,0c8.47,0,13.67-5.17,13.67-13.58q0-31.92,0-63.84c0-8.2-5.21-13.45-13.4-13.45q-51.06,0-102.12,0a15.57,15.57,0,0,0-3.86.39C66.65,83.94,63,88.79,63,95.11c0,21.29.15,42.57-.08,63.85-.09,7.8,5.42,14.15,14,14C93.76,172.73,110.62,172.91,127.48,172.91Z"/><path class="cls-1" d="M73.48,97.68c4,3.18,7.73,6.11,11.43,9l38.68,30.72c2.79,2.21,4.94,2.23,7.73,0l47.4-37.63,2.69-2.12c.06.94.14,1.55.14,2.16q0,29.48,0,59c0,3.28-.48,3.76-3.7,3.76h-101c-2.89,0-3.51-.57-3.51-3.37q0-29.88,0-59.75C73.38,99,73.43,98.59,73.48,97.68Z"/><path class="cls-1" d="M83.75,92.42h87.47c-.52.49-.81.81-1.14,1.07q-20.62,16.4-41.27,32.79c-.83.66-1.41,1-2.48.19q-20.89-16.69-41.87-33.3A10,10,0,0,1,83.75,92.42Z"/></svg>