<svg id="圖層_1" data-name="圖層 1" xmlns="http://www.w3.org/2000/svg" viewBox="0 0 254.93 254.93"><defs><style>.cls-1{fill:#a08045;}</style></defs><path class="cls-1" d="M127.56,26.88A100,100,0,0,1,227.46,127c-.13,55.28-45.05,100-100.2,99.85a100,100,0,0,1,.3-200ZM72,161.69a19.19,19.19,0,0,0,2.14.22c12.29-.12,24.59-.1,36.87-.45,9.25-.27,16-6.16,18.11-15.2,2.18-9.24-1.75-17.09-10.4-20.82-.44-.19-.85-.47-1.53-.85l2-1.38a16.72,16.72,0,0,0,4.36-22.86A17.14,17.14,0,0,0,109,92.28C97.3,92,85.6,92,73.9,91.82c-1.74,0-2,.75-2,2.29q.08,32.88,0,65.77C71.92,160.39,72,160.9,72,161.69Zm110.93-22.76c0-2.34.11-4.33,0-6.3-.32-4.82-1-9.55-3.8-13.72-5-7.44-12.08-10.75-20.9-11a23.25,23.25,0,0,0-23.29,16.65,38.58,38.58,0,0,0-1.21,15.81c1.18,10.48,7.52,18.35,17.26,20.41a43.85,43.85,0,0,0,13.19.58c7.89-.78,13.52-5.21,16.89-12.39a28.82,28.82,0,0,0,1.26-4.3c-1.06-.09-1.71-.2-2.37-.21-3.55-.06-7.1-.14-10.65-.11a1.88,1.88,0,0,0-1.31.89,10.77,10.77,0,0,1-20.08-6.34Zm-25-37.39c3.69,0,7.38-.05,11.07,0,2,0,3.09-.73,3-2.85,0-.73,0-1.47,0-2.21A2.15,2.15,0,0,0,169.56,94q-11.42,0-22.82,0a2.17,2.17,0,0,0-2.41,2.5c0,.73,0,1.47,0,2.21-.1,2,.82,2.83,2.78,2.81C150.73,101.51,154.35,101.54,158,101.54Z"/><path class="cls-1" d="M88,150.05V131.63a4.61,4.61,0,0,1,1.09-.26c5.77.13,11.54.09,17.29.47,6.33.41,9.57,4.64,8.71,10.84a7.56,7.56,0,0,1-6.81,6.85c-3.8.46-7.66.41-11.5.51C93.93,150.11,91.06,150.05,88,150.05Z"/><path class="cls-1" d="M88,119.44V103.88a7.79,7.79,0,0,1,1.43-.25c5,0,10.07,0,15.1.14s8,2.79,8.15,7.46c.2,4.48-2.66,7.88-7.54,8.14C99.53,119.67,93.85,119.44,88,119.44Z"/><path class="cls-1" d="M148.28,129c-.43-5.42,4.12-10.3,9.73-10.52A10.39,10.39,0,0,1,168.92,129Z"/></svg>