<svg id="圖層_1" data-name="圖層 1" xmlns="http://www.w3.org/2000/svg" viewBox="0 0 254.93 254.93"><defs><style>.cls-1{fill:#a08045;}</style></defs><path class="cls-1" d="M141.38,191.17c0-10.95.09-21.9-.06-32.84,0-2.72.82-3.43,3.41-3.36,6.43.16,12.87,0,19.3.09,2.39,0,3.19-.83,3.49-3.25.8-6.41,2-12.76,3-19.15.69-4.46.58-4.55-3.81-4.55-7.54,0-15.08,0-22.63,0-1.15,0-2.7.36-2.64-1.59.22-7.13-.9-14.33.74-21.37,2-8.7,6.2-11.88,15.08-11.91,3.66,0,7.33-.09,11,0,2.23.07,3.21-.62,3.15-3-.13-5.92-.06-11.84,0-17.77,0-1.48-.13-2.49-2-2.69-9.71-1-19.39-1.8-29.11,0C126.86,72.15,118.63,80.06,114.68,93c-2.87,9.41-1.79,19-2,28.58a20.15,20.15,0,0,0,0,3c.37,2.71-.54,3.72-3.41,3.61-6.1-.22-12.21,0-18.3-.11-2.51-.07-3.35.89-3.33,3.27.06,6.71,0,13.41,0,20.11,0,2.56.86,3.75,3.72,3.65,6-.23,12,0,18-.13,2.71-.08,3.37.92,3.36,3.5q-.14,33,0,66c0,2.82-1,3-3.35,2.58C83,221.91,62,208.28,46.2,186.54c-9.42-13-14.86-27.67-17.56-43.58a90.51,90.51,0,0,1-.94-21.26,97.84,97.84,0,0,1,12-41.37c15.92-28.62,39.91-46.07,72.11-51.41,29.79-4.94,56.42,2.79,79.71,22a95.75,95.75,0,0,1,34.16,58.43c5.56,30.9-1.58,58.86-21.47,83.26-13.65,16.74-31.17,27.41-51.86,33-2.46.66-5,1.12-7.44,1.71-2.8.67-3.59-.4-3.55-3.25C141.47,213.07,141.38,202.12,141.38,191.17Z"/></svg>