<svg id="圖層_1" data-name="圖層 1" xmlns="http://www.w3.org/2000/svg" viewBox="0 0 254.93 254.93"><defs><style>.cls-1{fill:#a08045;}.cls-2{fill:none;}</style></defs><path class="cls-1" d="M127.85,27C72.4,26.69,28.57,71.09,27.49,124.14,26.3,182.75,72.07,226.39,125.81,227c57.6.6,101.38-43.62,101.65-100.07C227.73,71.3,183.1,27.18,127.85,27ZM189,153.63c-.55,10.68-4.22,20.21-13.06,27a33.55,33.55,0,0,1-18.43,6.82c-18.67,1.19-37.37.53-56,.44-9.25-.05-17.89-2.85-24.92-9.31C68.78,171.41,66,162,65.72,152q-.61-24.85,0-49.73C66,90.8,69.17,80.19,79.21,73c7.1-5.09,15.18-7.15,23.81-7.17q23.91-.07,47.83,0c9.48.05,18.42,2,26,8.17,8.07,6.59,11.49,15.52,12,25.48.5,9.16.1,18.37.1,27.55h.08C189.09,135.89,189.45,144.78,189,153.63Z"/><path class="cls-2" d="M127.81,94.68c-17.44-1-32.56,14.49-32.81,31.72-.24,16.52,13.52,33.08,32.51,32.93a32.54,32.54,0,0,0,32.36-32.14C160.09,109,144.65,94.11,127.81,94.68Z"/><path class="cls-1" d="M177.69,126.36c0-8.66.14-17.32,0-26-.23-11.82-7.06-19.83-18.58-22.24a39.8,39.8,0,0,0-8.77-1c-16.89.25-33.79-.52-50.68.45-8.19.47-15,3.29-19.14,10.79A29.24,29.24,0,0,0,77,102.74c.08,17.83-.91,35.69.54,53.49.63,7.71,5.71,16,14.69,18.65,4.85,1.44,9.84,1.48,14.72,1.55,17,.22,34,.46,51-.54a19,19,0,0,0,6.71-1.7c9.52-4.34,12.57-12.63,13-22.17C178,143.48,177.7,134.91,177.69,126.36Zm-50.18,33c-19,.15-32.75-16.41-32.51-32.93.25-17.23,15.37-32.67,32.81-31.72,16.84-.57,32.28,14.33,32.06,32.51A32.54,32.54,0,0,1,127.51,159.33ZM160.17,101a6.9,6.9,0,0,1-6.52-6.51c0-3.05,3.19-6.44,6.21-6.55s6.47,3.21,6.51,6.47A6.21,6.21,0,0,1,160.17,101Z"/><path class="cls-1" d="M127.21,106.09c12.44-.72,21,9.65,21.21,20.3a20.79,20.79,0,0,1-20.89,21.54c-11.86,0-21-8.73-21.17-20.71C106.22,114.53,116.23,105.58,127.21,106.09Z"/></svg>