<?xml version="1.0" encoding="utf-8"?>
<!-- Generator: Adobe Illustrator 25.2.1, SVG Export Plug-In . SVG Version: 6.00 Build 0)  -->
<svg version="1.1" id="圖層_1" xmlns="http://www.w3.org/2000/svg" xmlns:xlink="http://www.w3.org/1999/xlink" x="0px" y="0px"
	 viewBox="0 0 500.58 500.32" style="enable-background:new 0 0 500.58 500.32;" xml:space="preserve">
<style type="text/css">
	.st0{fill:#016078;}
</style>
<path class="st0" d="M114.94,89.39c-4.6-1.6-8.53-2.97-14.96-5.2c9.35-3.6,16.45-6.79,23.87-8.89c2-0.56,6.65,1.79,7.07,3.54
	c0.8,3.23-0.23,7.13-1.2,10.55c-1.7,5.99-3.92,11.82-5.93,17.72c1.29,0.79,2.57,1.57,3.86,2.34c7.56-4.4,15.12-8.79,19.82-11.52
	c-2.3-10.02-5.93-18.11-5.5-25.98c0.5-9.15,7.93-14.41,17.37-14.16c9.88,0.26,13.66,6.79,12.89,15.89
	c-0.79,9.15,1.76,15.69,8.36,22.95c5.06,5.56,6.7,16.06,6.5,24.28c-0.9,36.53-3.12,73.05-4.67,109.57
	c-0.97,22.85,17.24,49.07,39.5,55.03c15.99,4.29,32.56,6.45,49.95,9.76c0-77.92,0-156.96,0-236.01c13.08-3.37,23.9-6.06,27.57,11.33
	c1.1,5.19,6.8,10.15,11.55,13.69c27.86,20.8,55.44,42.03,84.27,61.44c45.96,30.94,59.76,65.69,42.93,118.6
	c-5.22,16.39-14.15,31.61-21.78,47.18c-1.7,3.47-5.06,6.13-7.66,9.16c-1.2-0.67-2.42-1.34-3.62-2.02c1.24-3.99,2.09-8.16,3.79-11.96
	c10.48-23.53,20.07-47.17,19.95-73.66c-0.07-17.27-7.39-30.06-21.38-39.42c-29.79-19.9-64.2-25.98-98.4-32.24
	c-10.71-1.96-11.45,6.83-11.48,14.64c-0.1,28.31-0.17,56.61-0.17,84.93c0,21.34-1.13,42.78,0.5,64
	c2.86,37.36-13.26,65.15-41.81,86.3c-48.34,35.8-102.06,45.51-159.23,26.13c-42.29-14.34-53.53-53.54-27.5-89.89
	c14.76-20.62,33.82-36.03,57.51-45.56c19.62-7.9,23.18-26.96,8.5-42.39c-1.94-2.04-2.43-6.23-2.32-9.39
	c1.27-37.39,2.56-74.79,4.43-112.15c0.41-8.2-1.94-12.26-10.09-13.38c-19.25-2.66-20.08-4.07-15.38-23.63
	C112.94,97.29,113.88,93.63,114.94,89.39z M193.15,284.81c-8.68-10.26-14.82-18.62-22.12-25.8c-5.1-5-10.85-4.34-11.56,4.17
	c-0.7,8.43-0.16,16.95-0.16,27.06C170.83,288.4,180.41,286.85,193.15,284.81z"/>
</svg>
